<svg xmlns="http://www.w3.org/2000/svg" xmlns:xlink="http://www.w3.org/1999/xlink" width="207" height="207" viewBox="0 0 207 207">
  <defs>
    <radialGradient id="radial-gradient" cx="0.915" cy="0.215" r="1.786" gradientTransform="translate(1.764 -0.187) rotate(141.435)" gradientUnits="objectBoundingBox">
      <stop offset="0" stop-color="#00e4be"/>
      <stop offset="1" stop-color="#5f00cb"/>
    </radialGradient>
  </defs>
  <path id="Subtraction_1" data-name="Subtraction 1" d="M-2410.5-921a104.91,104.91,0,0,1-13.74-.9c.224-1.266.451-2.559.646-3.671,1.427-8.414,3.415-17.992,5.908-28.467s5.165-21.16,7.949-31.8,5.57-20.912,8.272-30.508c2.774-9.854,5.022-17.83,6.875-24.385h11.6c3.4,0,7.41.036,11.924.107s9.236.18,14.073.322a8.637,8.637,0,0,0,2.255-1.611,10.644,10.644,0,0,0,1.612-2.041,5.1,5.1,0,0,0,1.074-2.363q.216-1.289.43-2.578a8.413,8.413,0,0,0-.215-4.3c-4.554-.569-9.217-1.039-13.857-1.4l-1.764-.136-.131-.01-10.673-.822c-4.428-.285-8.765-.5-12.891-.644a13.769,13.769,0,0,0-2.041-.322c-.156-.014-.324-.021-.5-.021a12.466,12.466,0,0,0-2.614.343c-1.15,0-2.307-.036-3.437-.107s-2.288-.107-3.438-.107c-5.284,0-10.85.217-16.543.644-4.973.284-10.647.718-16.865,1.289s-12.68,1.439-19.229,2.578a6.218,6.218,0,0,0-3.116,1.611,11.07,11.07,0,0,0-2.04,2.9,20.374,20.374,0,0,0-1.4,3.652,27.7,27.7,0,0,0-.751,3.437,28.552,28.552,0,0,0-.215,3.545,8.416,8.416,0,0,0,.644,3.33,4.106,4.106,0,0,0,1.933,2.148,2.987,2.987,0,0,0,1.342.276,8.25,8.25,0,0,0,2.525-.491c1.648-.412,3.932-.975,6.983-1.719,2.9-.708,6.225-1.467,9.882-2.256,3.633-.783,7.573-1.542,11.709-2.255s8.392-1.363,12.677-1.934l-14.395,59.727c-3.313,14.115-6.277,26.656-8.809,37.275-1.407,5.9-2.722,11.463-3.91,16.529a103.028,103.028,0,0,1-28.583-14.635,103.907,103.907,0,0,1-22.55-22.423,103.056,103.056,0,0,1-14.794-28.488A103.369,103.369,0,0,1-2514-1024.5a102.853,102.853,0,0,1,8.134-40.287,103.479,103.479,0,0,1,9.543-17.581,104.237,104.237,0,0,1,12.638-15.318,104.232,104.232,0,0,1,15.318-12.638,103.536,103.536,0,0,1,17.581-9.543A102.855,102.855,0,0,1-2410.5-1128a102.852,102.852,0,0,1,40.287,8.133,103.518,103.518,0,0,1,17.581,9.543,104.256,104.256,0,0,1,15.318,12.638,104.221,104.221,0,0,1,12.638,15.318,103.508,103.508,0,0,1,9.543,17.581A102.854,102.854,0,0,1-2307-1024.5a102.853,102.853,0,0,1-8.134,40.287,103.517,103.517,0,0,1-9.543,17.581,104.22,104.22,0,0,1-12.638,15.318,104.24,104.24,0,0,1-15.318,12.638,103.5,103.5,0,0,1-17.581,9.543A102.849,102.849,0,0,1-2410.5-921Z" transform="translate(2514 1128)" fill="url(#radial-gradient)"/>
</svg>
