<svg xmlns="http://www.w3.org/2000/svg" xmlns:xlink="http://www.w3.org/1999/xlink" width="67" height="67" viewBox="0 0 67 67">
  <defs>
    <radialGradient id="radial-gradient" cx="1.219" cy="0.362" r="1.202" gradientTransform="matrix(-0.977, 0.214, -0.126, -0.577, 2.456, 0.311)" gradientUnits="objectBoundingBox">
      <stop offset="0" stop-color="#ffe600"/>
      <stop offset="1" stop-color="#ff9100"/>
    </radialGradient>
  </defs>
  <g id="Group_403" data-name="Group 403" transform="translate(-1030.5 -169.713)">
    <path id="Subtraction_2" data-name="Subtraction 2" d="M-2480.5-1061a33.453,33.453,0,0,1-10.794-1.777c.469-2.131,1.033-4.438,1.677-6.857,1-3.767,2.071-7.6,3.181-11.395,1.123-3.847,2.236-7.525,3.308-10.932,1.146-3.647,2.046-6.506,2.75-8.739h4.641c1.341,0,2.9.013,4.769.039,1.773.024,3.667.063,5.629.115a3.478,3.478,0,0,0,.9-.577,3.963,3.963,0,0,0,.645-.732,1.748,1.748,0,0,0,.43-.847q.03-.165.061-.33l0-.013.042-.226.039-.205.028-.15a2.714,2.714,0,0,0-.086-1.539c-1.809-.2-3.674-.372-5.543-.5l-1.837-.127-.2-.014-1.581-.109-1.407-.1c-1.755-.1-3.49-.179-5.156-.23a5.95,5.95,0,0,0-.816-.115c-.063-.005-.132-.008-.2-.008a5.513,5.513,0,0,0-1.043.123c-.451,0-.914-.013-1.375-.039s-.917-.039-1.375-.039c-2.115,0-4.341.078-6.618.231-1.989.1-4.259.257-6.746.462-2.469.2-5.057.514-7.692.924a2.585,2.585,0,0,0-1.246.577,4.016,4.016,0,0,0-.816,1.039,6.843,6.843,0,0,0-.559,1.309,9.094,9.094,0,0,0-.3,1.232,9.168,9.168,0,0,0-.086,1.271,2.744,2.744,0,0,0,.258,1.193,1.542,1.542,0,0,0,.773.77,1.32,1.32,0,0,0,.538.1,3.655,3.655,0,0,0,1.009-.175c.676-.153,1.59-.354,2.794-.617,1.145-.251,2.476-.522,3.954-.808,1.442-.28,3.018-.552,4.684-.808s3.364-.489,5.071-.693l-5.758,21.4c-1.285,4.9-2.437,9.275-3.426,12.992a33.714,33.714,0,0,1-11.61-11.963,33.335,33.335,0,0,1-3.253-7.878A33.578,33.578,0,0,1-2514-1094.5a33.289,33.289,0,0,1,2.633-13.04,33.4,33.4,0,0,1,7.179-10.648,33.394,33.394,0,0,1,10.648-7.179A33.29,33.29,0,0,1-2480.5-1128a33.288,33.288,0,0,1,13.039,2.633,33.4,33.4,0,0,1,10.648,7.179,33.388,33.388,0,0,1,7.18,10.648A33.313,33.313,0,0,1-2447-1094.5a33.31,33.31,0,0,1-2.632,13.039,33.392,33.392,0,0,1-7.18,10.649,33.4,33.4,0,0,1-10.648,7.179A33.291,33.291,0,0,1-2480.5-1061Zm4.846-29.4a4.551,4.551,0,0,0-1.755.319,3.553,3.553,0,0,0-1.289.905,3.982,3.982,0,0,0-.8,1.392,5.552,5.552,0,0,0-.273,1.778,5.78,5.78,0,0,0,.438,2.338,3.342,3.342,0,0,0,1.312,1.532,4.091,4.091,0,0,0,2.182.543,7.675,7.675,0,0,0,1.225-.085,5.2,5.2,0,0,0,.984-.261v-.867a9.66,9.66,0,0,1-.987.243,5.755,5.755,0,0,1-1.081.1,3.047,3.047,0,0,1-1.678-.434,2.665,2.665,0,0,1-1.008-1.228,4.8,4.8,0,0,1-.336-1.872,4.769,4.769,0,0,1,.21-1.465,3.2,3.2,0,0,1,.607-1.111,2.624,2.624,0,0,1,.961-.7,3.212,3.212,0,0,1,1.274-.243,3.914,3.914,0,0,1,1.057.138,6.228,6.228,0,0,1,.9.325l.4-.844a4.644,4.644,0,0,0-1.09-.369A5.979,5.979,0,0,0-2475.654-1090.4Zm12.135,1.108h.047l2.877,7.582h.814l2.911-7.569h.047c-.011.162-.023.356-.035.595s-.022.482-.029.726-.012.5-.012.765v5.484h.984v-8.566h-1.464l-2.754,7.125h-.041l-2.713-7.125h-1.477v8.566h.926v-5.413c0-.29,0-.569-.012-.829s-.018-.521-.03-.753S-2463.5-1089.136-2463.52-1089.294Zm-8.25-.985v8.566h1v-3.573h1.781l2.1,3.574h1.16l-2.35-3.849a3.292,3.292,0,0,0,.85-.434,2.115,2.115,0,0,0,.644-.735,2.359,2.359,0,0,0,.247-1.134,2.5,2.5,0,0,0-.34-1.359,2.021,2.021,0,0,0-1.028-.794,5,5,0,0,0-1.743-.261Zm2.355,4.149h-1.359v-3.288h1.26a2.877,2.877,0,0,1,1.614.364,1.4,1.4,0,0,1,.525,1.237,1.579,1.579,0,0,1-.5,1.259A2.334,2.334,0,0,1-2469.415-1086.13Z" transform="translate(3544.5 1297.712)" fill="url(#radial-gradient)"/>
  </g>
</svg>
